<?xml version="1.0" encoding="UTF-8"?>
<!-- Generated by Pixelmator Pro 3.7 -->
<svg width="45" height="41" viewBox="0 0 45 41" xmlns="http://www.w3.org/2000/svg">
    <path id="Path" fill="#dbdbdb" fill-rule="evenodd" stroke="none" d="M 4.20586 28.6213 C 1.88336 26.803699 0.722114 25.894899 0.287025 24.846901 L 0 23.4195 L 0 17.571501 L 1.46429 17.571501 L 1.46429 20.4809 C 2.10511 19.879999 2.9986 19.1807 4.20586 18.235901 L 15.8173 9.148731 C 18.139799 7.33112 19.301001 6.422321 20.6401 6.08181 C 21.818001 5.782299 23.0868 5.782299 24.264601 6.08181 C 25.603701 6.422321 26.764999 7.33112 29.0875 9.148731 L 40.698898 18.235901 L 40.698898 18.236 C 41.9062 19.180799 42.799702 19.879999 43.440498 20.4809 L 43.440498 17.571501 L 44.9048 17.571501 L 44.9048 23.4286 C 44.9048 23.907301 44.809101 24.386 44.617699 24.846901 C 44.182598 25.894899 43.0214 26.803699 40.698898 28.6213 L 29.0875 37.7085 L 29.0874 37.7085 C 26.764999 39.5261 25.603701 40.434898 24.264601 40.775398 C 23.0868 41.074902 21.818001 41.074902 20.6401 40.775398 C 19.301001 40.434898 18.139799 39.5261 15.8173 37.7085 L 4.20586 28.6213 Z"/>
    <path id="path1" fill="#ffffff" stroke="none" d="M 4.20588 22.764099 C 1.88338 20.946501 0.722125 20.037701 0.287036 18.9897 C -0.095679 18.0679 -0.095679 17.0749 0.287036 16.153099 C 0.722125 15.1052 1.88338 14.1964 4.20588 12.3787 L 15.8173 3.29155 C 18.139799 1.473949 19.301001 0.565144 20.6401 0.224636 C 21.818001 -0.074879 23.0868 -0.074879 24.2647 0.224636 C 25.603701 0.565144 26.764999 1.473949 29.0875 3.291561 L 40.698898 12.3787 C 43.0214 14.1964 44.182598 15.1052 44.617699 16.153099 C 45.000401 17.0749 45.000401 18.0679 44.617699 18.9897 C 44.182598 20.037701 43.0214 20.946501 40.698898 22.764099 L 29.0875 31.851299 C 26.764999 33.6689 25.603701 34.577702 24.2647 34.918201 C 23.0868 35.217701 21.818001 35.217701 20.6401 34.918201 C 19.301001 34.577702 18.139799 33.6689 15.8173 31.851299 L 4.20588 22.764099 Z"/>
    <path id="path2" fill="#ff8686" stroke="none" d="M 17.476101 11.5133 C 16.3148 10.6045 15.7342 10.150101 15.5166 9.62611 C 15.3253 9.165199 15.3253 8.66872 15.5166 8.207809 C 15.7342 7.68383 16.3148 7.22942 17.476101 6.320621 L 19.1348 5.022449 C 20.296101 4.11364 20.876699 3.659241 21.5462 3.488991 C 22.135201 3.33923 22.7696 3.33923 23.3585 3.488991 C 24.028099 3.659241 24.6087 4.11364 25.769899 5.022449 L 27.428699 6.320621 C 28.59 7.22942 29.170601 7.68383 29.3881 8.207809 C 29.5795 8.66872 29.5795 9.165199 29.3881 9.62611 C 29.170601 10.150101 28.59 10.6045 27.428699 11.5133 L 25.769899 12.811501 C 24.6087 13.720299 24.028099 14.1747 23.3585 14.3449 C 22.7696 14.494701 22.135201 14.494701 21.5462 14.3449 C 20.876699 14.1747 20.296101 13.720299 19.1348 12.811501 L 17.476101 11.5133 Z"/>
    <path id="path3" fill="#5aff88" stroke="none" d="M 28.5345 20.167801 C 27.373301 19.259001 26.7927 18.8046 26.5751 18.2806 C 26.383801 17.8197 26.383801 17.3232 26.5751 16.862301 C 26.7927 16.338301 27.373301 15.8839 28.5345 14.9751 L 30.1933 13.676899 C 31.354601 12.768101 31.9352 12.3137 32.604698 12.143501 C 33.193699 11.9937 33.828098 11.9937 34.417 12.143501 C 35.086498 12.3137 35.667198 12.768101 36.8284 13.676899 L 38.487202 14.9751 C 39.648399 15.8839 40.229099 16.338301 40.446602 16.862301 C 40.638 17.3232 40.638 17.8197 40.446602 18.2806 C 40.229099 18.8046 39.648399 19.259001 38.487202 20.167801 L 36.8284 21.4659 C 35.667198 22.374701 35.086498 22.8291 34.417 22.999399 C 33.828098 23.1492 33.193699 23.1492 32.604698 22.999399 C 31.9352 22.8291 31.354601 22.374701 30.1933 21.4659 L 28.5345 20.167801 Z"/>
    <path id="path4" fill="#768cff" stroke="none" d="M 6.41757 20.167801 C 5.25632 19.259001 4.6757 18.8046 4.45815 18.2806 C 4.2668 17.8197 4.2668 17.3232 4.45815 16.862301 C 4.6757 16.338301 5.25632 15.8839 6.41757 14.9751 L 8.07635 13.676899 C 9.2376 12.768101 9.81822 12.3137 10.4878 12.143501 C 11.0767 11.9937 11.7111 11.9937 12.3 12.143501 C 12.9696 12.3137 13.5502 12.768101 14.7114 13.676899 L 27.428699 23.629601 C 28.59 24.538401 29.170601 24.9928 29.3881 25.516701 C 29.5795 25.977699 29.5795 26.4741 29.3881 26.934999 C 29.170601 27.459 28.59 27.913401 27.428699 28.822201 L 25.769899 30.120399 C 24.6087 31.0292 24.028099 31.483601 23.3585 31.6539 C 22.7696 31.8036 22.135201 31.8036 21.5462 31.6539 C 20.876699 31.483601 20.296101 31.0292 19.1348 30.120399 L 6.41757 20.167801 Z"/>
</svg>
