<?xml version="1.0" encoding="UTF-8" standalone="no"?>
<!DOCTYPE svg PUBLIC "-//W3C//DTD SVG 1.1//EN" "http://www.w3.org/Graphics/SVG/1.1/DTD/svg11.dtd">
<svg width="100%" height="100%" viewBox="0 0 24 24" version="1.1" xmlns="http://www.w3.org/2000/svg" xmlns:xlink="http://www.w3.org/1999/xlink" xml:space="preserve" xmlns:serif="http://www.serif.com/" style="fill-rule:evenodd;clip-rule:evenodd;stroke-linejoin:round;stroke-miterlimit:2;">
    <path d="M10.55,2.533C11.384,1.83 12.616,1.83 13.45,2.533L20.2,8.228C20.708,8.655 21,9.284 21,9.948L21,19.75C21,20.71 20.21,21.5 19.25,21.5L16.25,21.5C15.29,21.5 14.5,20.71 14.5,19.75L14.5,14.75C14.5,14.339 14.161,14 13.75,14L10.25,14C9.839,14 9.5,14.339 9.5,14.75L9.5,19.75C9.5,20.71 8.71,21.5 7.75,21.5L4.75,21.5C3.79,21.5 3,20.71 3,19.75L3,9.947C3,9.284 3.292,8.655 3.8,8.227L10.55,2.533Z" style="fill:white;fill-rule:nonzero;"/>
</svg>
