<?xml version="1.0" encoding="UTF-8"?>
<!-- Generated by Pixelmator Pro 3.7 -->
<svg width="24" height="24" viewBox="0 0 24 24" xmlns="http://www.w3.org/2000/svg">
    <path id="Path" fill="#ffffff" stroke="none" d="M 3 6.25 C 3 4.455074 4.455075 3 6.25 3 L 15.25 3 C 17.044926 3 18.5 4.455074 18.5 6.25 L 18.5 15.25 C 18.5 15.896 18.311001 16.497999 17.986 17.004999 L 12.294 11.629 C 11.426839 10.809917 10.071161 10.809917 9.204 11.629 L 3.514 17.004 C 3.177628 16.480896 2.999171 15.87192 3 15.25 L 3 6.25 Z M 13.747 8.996 C 14.436252 8.996 14.995 8.437251 14.995 7.748001 C 14.995 7.058748 14.436252 6.5 13.747 6.5 C 13.057749 6.5 12.499 7.058748 12.499 7.748001 C 12.499 8.437251 13.057749 8.996 13.747 8.996 Z"/>
    <path id="path1" fill="#ffffff" stroke="none" d="M 11.264 12.72 L 16.906 18.047001 C 16.404875 18.344393 15.832725 18.500904 15.25 18.5 L 6.25 18.5 C 5.667275 18.500904 5.095125 18.344393 4.594 18.047001 L 10.234 12.72 C 10.523054 12.446973 10.974946 12.446973 11.264 12.72 Z"/>
    <path id="path2" fill="#ffffff" stroke="none" d="M 8.749 21 C 7.639359 21.001036 6.606026 20.435343 6.009 19.5 L 15.749 19.5 C 17.820068 19.5 19.499001 17.821068 19.499001 15.75 L 19.499001 6.011 C 20.434341 6.608025 21.000036 7.641359 20.999001 8.751 L 20.999001 15.751 C 20.999001 18.65 18.649 21.000999 15.749 21.000999 L 8.749 21.000999 Z"/>
</svg>
