<?xml version="1.0" encoding="UTF-8" standalone="no"?>
<!DOCTYPE svg PUBLIC "-//W3C//DTD SVG 1.1//EN" "http://www.w3.org/Graphics/SVG/1.1/DTD/svg11.dtd">
<svg width="100%" height="100%" viewBox="0 0 24 24" version="1.1" xmlns="http://www.w3.org/2000/svg" xmlns:xlink="http://www.w3.org/1999/xlink" xml:space="preserve" xmlns:serif="http://www.serif.com/" style="fill-rule:evenodd;clip-rule:evenodd;stroke-linejoin:round;stroke-miterlimit:2;">
    <path d="M4.284,10.296C4.1,10.483 3.996,10.735 3.996,10.998C3.996,11.547 4.448,11.998 4.997,11.998C5.264,11.998 5.521,11.891 5.709,11.7L11,6.33L11,20C11,20.549 11.451,21 12,21C12.549,21 13,20.549 13,20L13,6.336L18.285,11.7C18.473,11.891 18.73,11.998 18.998,11.998C19.546,11.998 19.998,11.547 19.998,10.998C19.998,10.735 19.894,10.483 19.71,10.296L12.887,3.372C12.652,3.134 12.331,3 11.997,3C11.663,3 11.342,3.134 11.107,3.372L4.284,10.296Z" style="fill:white;fill-rule:nonzero;"/>
</svg>
